#!OML:ASF F:\VICON\USERDATA\INSTALL\rory3\rory3.ASF
:FULLY-SPECIFIED
:DEGREES
433
root -0.0232133 18.0123 -0.95737 2.69159 -12.0927 1.40728
lowerback -0.455674 -2.59888 -2.92991
upperback -0.133856 -3.45978 2.0303
thorax 0.417015 -1.7392 3.69085
lowerneck -28.3746 -0.592753 -7.83642
upperneck 25.231 2.25617 1.18437
head 13.0942 0.358079 2.18321
rclavicle -6.83322e-015 7.15625e-015
rhumerus -32.3242 -4.73221 -82.3144
rradius 31.1809
rwrist 20.5973
rhand -17.964 7.27278
rfingers 7.12502
rthumb 8.30509 -22.544
lclavicle -6.83322e-015 7.15625e-015
lhumerus -23.2329 -5.10782 90.9336
lradius 67.564
lwrist 2.42094
lhand -31.1582 23.3593
lfingers 7.12502
lthumb -4.43592 53.2928
rfemur -9.26594 10.0437 14.6257
rtibia 24.7288
rfoot -15.3419 -3.27365
rtoes 4.67011
lfemur 0.755215 -1.76501 -22.0344
ltibia 10.4089
lfoot -9.4313 7.29513
ltoes -11.8341
434
root -0.0212138 18.0123 -0.960237 2.69194 -12.0599 1.35487
lowerback -0.491663 -2.57504 -2.90294
upperback -0.0733953 -3.42732 2.02682
thorax 0.49467 -1.72524 3.66912
lowerneck -28.5875 -0.675448 -7.81653
upperneck 25.2099 2.13329 1.24127
head 13.132 0.314938 2.18102
rclavicle -5.83433e-014 4.77083e-015
rhumerus -32.1939 -4.7084 -82.3796
rradius 31.2502
rwrist 20.5219
rhand -17.9654 7.59146
rfingers 7.12502
rthumb 8.30376 -22.2253
lclavicle -5.83433e-014 4.77083e-015
lhumerus -23.3519 -5.13551 91.0502
lradius 67.9629
lwrist 2.46487
lhand -30.9731 23.333
lfingers 7.12502
lthumb -4.25711 53.2702
rfemur -9.25438 10.0134 14.6798
rtibia 24.7226
rfoot -15.3585 -3.24123
rtoes 4.63245
lfemur 0.745384 -1.87761 -21.9883
ltibia 10.4143
lfoot -9.4128 7.39075
ltoes -11.8142
435
root -0.0199759 18.0096 -0.961168 2.63963 -12.0541 1.3663
lowerback -0.542338 -2.55297 -3.00337
upperback 0.00717615 -3.39641 2.05189
thorax 0.610565 -1.7136 3.74705
lowerneck -28.7268 -0.760502 -7.86529
upperneck 25.1542 2.01767 1.33474
head 13.1398 0.275159 2.20437
rclavicle 7.77745e-015 -1.27222e-014
rhumerus -32.0476 -4.60404 -82.3764
rradius 31.2643
rwrist 20.4351
rhand -17.7816 8.3295
rfingers 7.12502
rthumb 8.48111 -21.4802
lclavicle 7.77745e-015 -1.27222e-014
lhumerus -23.4036 -5.06844 91.2116
lradius 68.2914
lwrist 2.3927
lhand -30.7653 23.4451
lfingers 7.12502
lthumb -4.05646 53.3862
rfemur -9.18151 10.0046 14.6643
rtibia 24.6874
rfoot -15.3792 -3.14989
rtoes 5.04678
lfemur 0.746796 -1.95931 -22.0136
ltibia 10.4501
lfoot -9.45951 7.46803
ltoes -11.8138
436
root -0.019819 18.0084 -0.961452 2.61454 -12.0492 1.41157
lowerback -0.600146 -2.55196 -3.10037
upperback 0.0168843 -3.39305 2.05079
thorax 0.65823 -1.71332 3.79731
lowerneck -28.6314 -0.828832 -7.96076
upperneck 25.0388 1.90449 1.48067
head 13.0768 0.242564 2.25323
rclavicle -1.19271e-015 1.59028e-015
rhumerus -32.0041 -4.49492 -82.402
rradius 31.2623
rwrist 20.3665
rhand -17.7207 8.76574
rfingers 7.12502
rthumb 8.53986 -21.0416
lclavicle -1.19271e-015 1.59028e-015
lhumerus -23.5253 -5.03325 91.305
lradius 68.5431
lwrist 2.45182
lhand -30.667 23.3786
lfingers 7.12502
lthumb -3.96158 53.3215
rfemur -9.13396 9.97116 14.6129
rtibia 24.6324
rfoot -15.3395 -3.14459
rtoes 5.14655
lfemur 0.725724 -1.93406 -22.0683
ltibia 10.464
lfoot -9.50278 7.45674
ltoes -11.6302
437
root -0.0203823 18.0103 -0.962106 2.65197 -12.0294 1.36238
lowerback -0.705974 -2.5493 -3.06549
upperback 0.0316776 -3.3871 2.03643
thorax 0.729276 -1.71172 3.75744
lowerneck -28.5336 -0.880154 -8.02837
upperneck 24.9258 1.79478 1.65309
head 13.014 0.217997 2.30865
rclavicle 3.844e-014 1.27222e-014
rhumerus -32.0059 -4.32281 -82.541
rradius 31.3765
rwrist 20.2302
rhand -17.7647 8.5623
rfingers 7.12502
rthumb 8.49744 -21.2467
lclavicle 3.844e-014 1.27222e-014
lhumerus -23.5525 -5.06382 91.3345
lradius 68.7039
lwrist 2.46692
lhand -30.5858 23.0849
lfingers 7.12502
lthumb -3.88321 53.0293
rfemur -9.12239 9.95863 14.6659
rtibia 24.5752
rfoot -15.3267 -3.13792
rtoes 5.1463
lfemur 0.742678 -1.92988 -22.011
ltibia 10.4175
lfoot -9.47076 7.42683
ltoes -11.697
438
root -0.0210941 18.0137 -0.962063 2.69786 -12.0176 1.34843
lowerback -0.831869 -2.52711 -3.05377
upperback 0.070655 -3.35427 2.00319
thorax 0.834266 -1.69765 3.71014
lowerneck -28.5696 -0.942883 -8.06941
upperneck 24.8399 1.68803 1.77435
head 12.9894 0.1883 2.34182
rclavicle 8.03587e-014 -1.82882e-014
rhumerus -31.9462 -4.20301 -82.6855
rradius 31.4934
rwrist 20.1127
rhand -17.7821 7.99656
rfingers 7.12502
rthumb 8.48066 -21.8131
lclavicle 8.03587e-014 -1.82882e-014
lhumerus -23.5786 -5.09184 91.3919
lradius 68.959
lwrist 2.38648
lhand -30.4101 22.9999
lfingers 7.12502
lthumb -3.7135 52.9473
rfemur -9.12554 9.95894 14.6744
rtibia 24.5148
rfoot -15.3141 -3.11827
rtoes 5.1398
lfemur 0.762932 -1.85447 -21.9841
ltibia 10.3616
lfoot -9.45376 7.33842
ltoes -11.9226
439
root -0.0215464 18.0133 -0.961959 2.65494 -12.0332 1.30748
lowerback -0.827681 -2.49839 -3.03092
upperback 0.0985059 -3.31616 1.99174
thorax 0.855198 -1.67924 3.68587
lowerneck -28.5927 -1.01234 -8.09702
upperneck 24.8053 1.58627 1.82955
head 12.9847 0.150406 2.34856
rclavicle -1.56543e-014 5.56597e-015
rhumerus -31.9166 -4.16574 -82.7501
rradius 31.5617
rwrist 20.1321
rhand -17.7764 7.63312
rfingers 7.12502
rthumb 8.48617 -22.1764
lclavicle -1.56543e-014 5.56597e-015
lhumerus -23.7171 -5.11792 91.4379
lradius 69.3298
lwrist 2.3921
lhand -30.162 22.9624
lfingers 7.12502
lthumb -3.47387 52.9139
rfemur -9.03864 10.0191 14.7214
rtibia 24.4541
rfoot -15.2993 -3.09916
rtoes 5.36984
lfemur 0.81 -1.83388 -21.9348
ltibia 10.3524
lfoot -9.45341 7.34946
ltoes -11.6753
440
root -0.0211328 18.0134 -0.965663 2.7069 -12.0133 1.25938
lowerback -0.83358 -2.46948 -2.97789
upperback 0.0493568 -3.27774 1.97215
thorax 0.8005 -1.65786 3.63796
lowerneck -28.6272 -1.12174 -8.23966
upperneck 24.8923 1.4369 2.03022
head 13.0321 0.0976349 2.42511
rclavicle -1.72694e-014 -4.77083e-015
rhumerus -31.9875 -4.1818 -82.802
rradius 31.6318
rwrist 20.2251
rhand -17.7261 7.6106
rfingers 7.12502
rthumb 8.53468 -22.1969
lclavicle -1.72694e-014 -4.77083e-015
lhumerus -23.8646 -5.28403 91.4701
lradius 69.6277
lwrist 2.42523
lhand -30.0204 22.7563
lfingers 7.12502
lthumb -3.33711 52.7099
rfemur -9.07656 10.0236 14.7631
rtibia 24.413
rfoot -15.2675 -3.09891
rtoes 5.62192
lfemur 0.700379 -1.82048 -21.8754
ltibia 10.3772
lfoot -9.43545 7.35198
ltoes -11.4533
441
root -0.0194219 18.0132 -0.969113 2.74991 -12.0167 1.25212
lowerback -0.921513 -2.41923 -2.92545
upperback 0.0528626 -3.20872 1.92523
thorax 0.841826 -1.62362 3.55768
lowerneck -28.7033 -1.25824 -8.48667
upperneck 24.9572 1.25536 2.37164
head 13.0787 0.0421771 2.56848
rclavicle -8.02593e-015 -1.59028e-015
rhumerus -32.0089 -4.23441 -82.8522
rradius 31.7441
rwrist 20.2608
rhand -17.5649 7.76414
rfingers 7.12502
rthumb 8.69019 -22.037
lclavicle -8.02593e-015 -1.59028e-015
lhumerus -23.8856 -5.51696 91.5116
lradius 69.8269
lwrist 2.2592
lhand -29.8589 22.6327
lfingers 7.12502
lthumb -3.18117 52.5887
rfemur -9.13304 9.94589 14.7583
rtibia 24.3986
rfoot -15.223 -3.08316
rtoes 5.56249
lfemur 0.618484 -1.89512 -21.8771
ltibia 10.409
lfoot -9.44264 7.42439
ltoes -11.3342
442
root -0.0189889 18.0122 -0.973709 2.71937 -11.9579 1.24515
lowerback -0.960155 -2.39395 -2.91375
upperback 0.117864 -3.174 1.90264
thorax 0.925393 -1.60856 3.5252
lowerneck -28.7449 -1.36556 -8.61804
upperneck 24.8853 1.10992 2.54822
head 13.0641 -0.00571944 2.63133
rclavicle -3.88624e-014 1.82882e-014
rhumerus -31.9242 -4.28777 -82.8761
rradius 31.7812
rwrist 20.264
rhand -17.5661 7.97096
rfingers 7.12502
rthumb 8.68911 -21.8302
lclavicle -3.88624e-014 1.82882e-014
lhumerus -23.7896 -5.76797 91.5833
lradius 69.9963
lwrist 2.11861
lhand -29.9306 22.5952
lfingers 7.12502
lthumb -3.25047 52.5502
rfemur -9.10491 9.87301 14.775
rtibia 24.4014
rfoot -15.2233 -3.06484
rtoes 5.47602
lfemur 0.616342 -1.9213 -21.8652
ltibia 10.43
lfoot -9.4354 7.36494
ltoes -11.5341
443
root -0.0206132 18.0127 -0.977922 2.65362 -11.8168 1.25723
lowerback -0.928378 -2.39328 -2.95749
upperback 0.160396 -3.17316 1.88486
thorax 0.952585 -1.60943 3.53172
lowerneck -28.7037 -1.46595 -8.65611
upperneck 24.7932 0.960101 2.60818
head 13.028 -0.0629891 2.63072
rclavicle 7.47927e-015 -1.19271e-014
rhumerus -31.8543 -4.35341 -82.8745
rradius 31.776
rwrist 20.344
rhand -17.5635 8.04553
rfingers 7.12502
rthumb 8.6916 -21.7555
lclavicle 7.47927e-015 -1.19271e-014
lhumerus -23.7673 -6.04439 91.6372
lradius 70.2442
lwrist 2.1428
lhand -30.0179 22.6187
lfingers 7.12502
lthumb -3.33476 52.5724
rfemur -9.00825 9.8159 14.7885
rtibia 24.3908
rfoot -15.2335 -3.17124
rtoes 5.02524
lfemur 0.62438 -1.94316 -21.8646
ltibia 10.5031
lfoot -9.41739 7.26195
ltoes -11.8924
